<svg xmlns="http://www.w3.org/2000/svg" width="40" height="40" viewBox="0 0 40 40">
  <g id="ico_menu_help" transform="translate(-138 -515)">
    <rect id="長方形_35" data-name="長方形 35" width="40" height="40" transform="translate(138 515)" fill="none"/>
    <g id="グループ_14" data-name="グループ 14" transform="translate(143 520)">
      <path id="パス_230" data-name="パス 230" d="M0,0H30V30H0Z" fill="none"/>
      <path id="パス_231" data-name="パス 231" d="M15,2A13,13,0,1,0,28,15,13,13,0,0,0,15,2Zm0,23.4A10.4,10.4,0,1,1,25.4,15,10.414,10.414,0,0,1,15,25.4Zm-1.3-5.2h2.6v2.6H13.7ZM15.793,7.252a5.2,5.2,0,0,0-5.759,3.627A1.179,1.179,0,0,0,11.165,12.4h.26a1.251,1.251,0,0,0,1.144-.871,2.6,2.6,0,0,1,2.99-1.664,2.63,2.63,0,0,1,2.041,2.73c-.13,1.742-2.106,2.119-3.185,3.744,0,.013-.013.013-.013.026s-.026.039-.039.065a4.331,4.331,0,0,0-.325.65c-.013.039-.039.065-.052.1a.829.829,0,0,0-.026.091A4.833,4.833,0,0,0,13.7,18.9h2.6a2.762,2.762,0,0,1,.364-1.391c.026-.039.039-.078.065-.117a3.585,3.585,0,0,1,.364-.507c.013-.013.026-.039.039-.052a4.569,4.569,0,0,1,.429-.442c1.248-1.183,2.938-2.145,2.587-4.628a5.3,5.3,0,0,0-4.355-4.511Z" transform="translate(0 0)"/>
    </g>
  </g>
</svg>
