<svg xmlns="http://www.w3.org/2000/svg" width="16" height="17" viewBox="0 0 16 17">
  <g id="ico_sns_tumbler" transform="translate(-1655 -5390)">
    <rect id="長方形_45" data-name="長方形 45" width="16" height="17" transform="translate(1655 5390)" fill="none"/>
    <path id="パス_200" data-name="パス 200" d="M15.136,17.315V15.351a3.338,3.338,0,0,1-1.856.637,2.209,2.209,0,0,1-.954-.263.8.8,0,0,1-.374-.478,3.711,3.711,0,0,1-.169-1.382V10.736h2.852v-1.9H11.783V5.644H10.1a7.89,7.89,0,0,1-.426,1.59A2.929,2.929,0,0,1,8.826,8.3,3.8,3.8,0,0,1,7.6,8.984v1.751H8.931v4.3A3.4,3.4,0,0,0,9.143,16.3a2.2,2.2,0,0,0,.638.849,2.971,2.971,0,0,0,1.06.637A6.161,6.161,0,0,0,12.326,18a5.7,5.7,0,0,0,1.378-.159,5.466,5.466,0,0,0,1.432-.529" transform="translate(1650.432 5386.338)" fill="#fff"/>
  </g>
</svg>
