<svg xmlns="http://www.w3.org/2000/svg" width="16" height="17" viewBox="0 0 16 17">
  <g id="ico_sns_twitter" transform="translate(-0.098 0.224)">
    <rect id="長方形_6" data-name="長方形 6" width="16" height="17" transform="translate(0.098 -0.224)" fill="rgba(0,0,0,0)"/>
    <path id="パス_198" data-name="パス 198" d="M6.52,4.968A3.291,3.291,0,0,1,11.994,2.51,5.858,5.858,0,0,0,13.34,1.8a.622.622,0,0,1,.962.655,5.22,5.22,0,0,1-1.188,2.252c.008.094.013.188.013.283a8.548,8.548,0,0,1-2.869,6.7,8.735,8.735,0,0,1-9.975.693.621.621,0,0,1,.326-1.164,6.318,6.318,0,0,0,2.862-.56A7.4,7.4,0,0,1,.266,3.207a2.114,2.114,0,0,1,.381-.818.992.992,0,0,1,.6-.364,1.034,1.034,0,0,1,1.038.523A5.739,5.739,0,0,0,6.52,4.968Zm5.815-1.261c-.109.039-.219.075-.33.108a.621.621,0,0,1-.647-.187,2.049,2.049,0,0,0-3.6,1.345v.632a.621.621,0,0,1-.605.621,6.981,6.981,0,0,1-5.67-2.67,3.309,3.309,0,0,0-.114.666,6.161,6.161,0,0,0,3.636,5.865.621.621,0,0,1,.1,1.081,7.54,7.54,0,0,1-2.064.983,7.188,7.188,0,0,0,6.41-1.4,7.337,7.337,0,0,0,2.434-5.759,2.029,2.029,0,0,0-.037-.38.623.623,0,0,1,.174-.559A3.914,3.914,0,0,0,12.335,3.708Z" transform="translate(1.14 1.148)" fill="#fff" fill-rule="evenodd"/>
  </g>
</svg>
