<svg xmlns="http://www.w3.org/2000/svg" width="17" height="17" viewBox="0 0 17 17">
  <g id="ico_sns_github" transform="translate(0.383 0.224)">
    <rect id="長方形_7" data-name="長方形 7" width="17" height="17" transform="translate(-0.383 -0.224)" fill="rgba(0,0,0,0)"/>
    <path id="パス_199" data-name="パス 199" d="M10.083.763A10.366,10.366,0,0,1,11.949-.442a.954.954,0,0,1,.653.021,1.137,1.137,0,0,1,.6.672,3.967,3.967,0,0,1,.175,2.512A4.176,4.176,0,0,1,14.236,5.3a5.352,5.352,0,0,1-.976,3.405,4.447,4.447,0,0,1-2.627,1.536,2.833,2.833,0,0,1,.192,1.231v2.46a.621.621,0,1,1-1.242,0V11.458c0-.016,0-.031,0-.047a1.578,1.578,0,0,0-.417-1.2.621.621,0,0,1,.382-1.042A3.811,3.811,0,0,0,12.28,7.946,4.184,4.184,0,0,0,12.994,5.3a2.925,2.925,0,0,0-.766-1.98.621.621,0,0,1-.128-.633,2.718,2.718,0,0,0,0-1.834c-.055.031-.114.067-.166.1-.332.226-.775.566-1.383.987a.622.622,0,0,1-.521.087,7.432,7.432,0,0,0-4.007,0,.622.622,0,0,1-.521-.087,5.083,5.083,0,0,0-1.632-.807,2.723,2.723,0,0,0,.089,1.551.621.621,0,0,1-.128.633,2.927,2.927,0,0,0-.766,2,4.144,4.144,0,0,0,.713,2.623A3.9,3.9,0,0,0,6.523,9.19.621.621,0,0,1,6.9,10.23a1.578,1.578,0,0,0-.417,1.185c0,.014,0,.028,0,.042v2.478a.621.621,0,1,1-1.242,0V12.8a3.16,3.16,0,0,1-1.675-.136A3.24,3.24,0,0,1,2.2,11.571c-.178-.225-.336-.453-.509-.638a.717.717,0,0,0-.331-.237.621.621,0,1,1,.31-1.2,2.383,2.383,0,0,1,1.235.959A2.571,2.571,0,0,0,4.084,11.53a2.2,2.2,0,0,0,1.156.007v-.063a2.839,2.839,0,0,1,.2-1.217A4.522,4.522,0,0,1,2.805,8.711a5.307,5.307,0,0,1-.977-3.385,4.178,4.178,0,0,1,.859-2.564A3.967,3.967,0,0,1,2.862.251a.623.623,0,0,1,.392-.356s.849-.35,2.721.87A8.67,8.67,0,0,1,10.083.763Z" transform="translate(0.552 1.248)" fill="#fff" fill-rule="evenodd"/>
  </g>
</svg>
