<svg xmlns="http://www.w3.org/2000/svg" width="40" height="40" viewBox="0 0 40 40">
  <g id="ico_menu_history" transform="translate(-30 -285)">
    <rect id="長方形_35" data-name="長方形 35" width="40" height="40" transform="translate(30 285)" fill="none"/>
    <path id="パス_225" data-name="パス 225" d="M17,2A15,15,0,0,0,6.68,6.155V3.5a1.5,1.5,0,1,0-3,0v6.75a1.5,1.5,0,0,0,1.5,1.5h6.75a1.5,1.5,0,1,0,0-3H8.33A12,12,0,1,1,5,17a1.5,1.5,0,1,0-3,0A15,15,0,1,0,17,2Zm0,9a1.5,1.5,0,0,0-1.5,1.5V17A1.5,1.5,0,0,0,17,18.5h3a1.5,1.5,0,0,0,0-3H18.5v-3A1.5,1.5,0,0,0,17,11Z" transform="translate(33 288)"/>
  </g>
</svg>
