<svg xmlns="http://www.w3.org/2000/svg" width="40" height="40" viewBox="0 0 40 40">
  <g id="ico_menu_trending" transform="translate(-30 -175)">
    <rect id="長方形_35" data-name="長方形 35" width="40" height="40" transform="translate(30 175)" fill="none"/>
    <path id="パス_227" data-name="パス 227" d="M10.9,11.029l0,0,0,0Zm14.378-.253a1.78,1.78,0,0,0-.332-.237,1.526,1.526,0,0,0-1.139-.132,1.425,1.425,0,0,0-.882.69,7.938,7.938,0,0,1-2.019,2.41,11.053,11.053,0,0,0,.193-2.048A11.711,11.711,0,0,0,14.739,1.176a1.527,1.527,0,0,0-1.4-.013,1.353,1.353,0,0,0-.755,1.106,9.325,9.325,0,0,1-3.569,6.7l-.333.254a12.022,12.022,0,0,0-2.87,2.526A11.611,11.611,0,0,0,3.426,22.423a12.464,12.464,0,0,0,7.666,8.191,1.524,1.524,0,0,0,1.351-.13,1.306,1.306,0,0,0,.566-1.55,8.9,8.9,0,0,1-.274-3.5,12.719,12.719,0,0,0,6.229,5.447A1.527,1.527,0,0,0,20,30.934a12.543,12.543,0,0,0,8.626-8.7,11.7,11.7,0,0,0-3.348-11.461Zm-5.64,17.4a9.6,9.6,0,0,1-5.166-5.971,11.422,11.422,0,0,1-.26-1.307,1.4,1.4,0,0,0-1.155-1.146,1.508,1.508,0,0,0-.277-.025,1.463,1.463,0,0,0-1.252.679,11.574,11.574,0,0,0-1.741,6.4A9.354,9.354,0,0,1,5.96,20.448a9.068,9.068,0,0,1,2.128-7.025,9.26,9.26,0,0,1,2.256-1.977,1.075,1.075,0,0,0,.107-.074s.429-.333.443-.341a12.087,12.087,0,0,0,4.187-6.283,8.739,8.739,0,0,1,2,10.969,1.291,1.291,0,0,0,.172,1.5,1.5,1.5,0,0,0,1.538.426A11.379,11.379,0,0,0,24.372,14a9.009,9.009,0,0,1,1.275,8.164,9.769,9.769,0,0,1-6.012,6.018Z" transform="translate(34 179)"/>
  </g>
</svg>
