<svg xmlns="http://www.w3.org/2000/svg" width="40" height="40" viewBox="0 0 40 40">
  <g id="ico_menu_setting" transform="translate(-138 -455)">
    <rect id="長方形_35" data-name="長方形 35" width="40" height="40" transform="translate(138 455)" fill="none"/>
    <path id="パス_229" data-name="パス 229" d="M30.98,13.325l-2.835-.945L29.48,9.71A1.5,1.5,0,0,0,29.195,8L26,4.805a1.5,1.5,0,0,0-1.725-.285L21.6,5.855,20.66,3.02A1.5,1.5,0,0,0,19.25,2h-4.5a1.5,1.5,0,0,0-1.425,1.02L12.38,5.855,9.71,4.52A1.5,1.5,0,0,0,8,4.8L4.805,8A1.5,1.5,0,0,0,4.52,9.725l1.335,2.67L3.02,13.34A1.5,1.5,0,0,0,2,14.75v4.5a1.5,1.5,0,0,0,1.02,1.425l2.835.945L4.52,24.29A1.5,1.5,0,0,0,4.8,26L8,29.195a1.5,1.5,0,0,0,1.725.285l2.67-1.335.945,2.835A1.5,1.5,0,0,0,14.765,32h4.5a1.5,1.5,0,0,0,1.425-1.02l.945-2.835L24.3,29.48A1.5,1.5,0,0,0,26,29.195L29.195,26a1.5,1.5,0,0,0,.285-1.725L28.145,21.6l2.835-.945A1.5,1.5,0,0,0,32,19.25v-4.5a1.5,1.5,0,0,0-1.02-1.425ZM29,18.17l-1.8.6A3,3,0,0,0,25.46,23l.855,1.71-1.65,1.65L23,25.46a3,3,0,0,0-4.185,1.74l-.6,1.8H15.83l-.6-1.8A3,3,0,0,0,11,25.46l-1.71.855-1.65-1.65L8.54,23A3,3,0,0,0,6.8,18.77L5,18.17V15.83l1.8-.6A3,3,0,0,0,8.54,11L7.685,9.335l1.65-1.65L11,8.54A3,3,0,0,0,15.23,6.8l.6-1.8h2.34l.6,1.8A3,3,0,0,0,23,8.54l1.71-.855,1.65,1.65L25.46,11a3,3,0,0,0,1.74,4.185l1.8.6ZM17,11a6,6,0,1,0,6,6A6,6,0,0,0,17,11Zm0,9a3,3,0,1,1,3-3A3,3,0,0,1,17,20Z" transform="translate(141 458)"/>
  </g>
</svg>
