<svg xmlns="http://www.w3.org/2000/svg" width="40" height="40" viewBox="0 0 40 40">
  <g id="ico_menu_home" transform="translate(-30 -115)">
    <rect id="長方形_33" data-name="長方形 33" width="40" height="40" transform="translate(30 115)" fill="none"/>
    <path id="パス_223" data-name="パス 223" d="M31.333,11h0l-10-7.881a5.426,5.426,0,0,0-6.667,0L4.667,11A4.3,4.3,0,0,0,3,14.387V27.481a4.768,4.768,0,0,0,5,4.495H28a4.768,4.768,0,0,0,5-4.495V14.372A4.306,4.306,0,0,0,31.333,11Zm-10,17.978H14.667V21.489a1.589,1.589,0,0,1,1.667-1.5h3.333a1.589,1.589,0,0,1,1.667,1.5Zm8.333-1.5A1.589,1.589,0,0,1,28,28.98H24.667V21.489a4.768,4.768,0,0,0-5-4.495H16.333a4.768,4.768,0,0,0-5,4.495V28.98H8a1.589,1.589,0,0,1-1.667-1.5V14.372A1.438,1.438,0,0,1,6.9,13.248l10-7.866a1.81,1.81,0,0,1,2.2,0l10,7.866a1.438,1.438,0,0,1,.567,1.124Z" transform="translate(32 118.024)"/>
  </g>
</svg>
