<svg xmlns="http://www.w3.org/2000/svg" width="40" height="40" viewBox="0 0 40 40">
  <g id="ico_menu_account" transform="translate(-138 -395)">
    <rect id="長方形_35" data-name="長方形 35" width="40" height="40" transform="translate(138 395)" fill="none"/>
    <path id="パス_228" data-name="パス 228" d="M22.634,18.058a9.032,9.032,0,1,0-11.185,0A15,15,0,0,0,2.073,30.321a1.516,1.516,0,0,0,3.015.33,12.067,12.067,0,0,1,23.968,0,1.5,1.5,0,0,0,1.507,1.334h.166a1.5,1.5,0,0,0,1.327-1.649,15,15,0,0,0-9.421-12.278Zm-5.592-1.064a6,6,0,1,1,6.03-6A6.013,6.013,0,0,1,17.042,16.994Z" transform="translate(140.936 398.005)"/>
  </g>
</svg>
