<svg xmlns="http://www.w3.org/2000/svg" width="40" height="40" viewBox="0 0 40 40">
  <g id="ico_menu_announce" transform="translate(-30 -230)">
    <rect id="長方形_34" data-name="長方形 34" width="40" height="40" transform="translate(30 230)" fill="none"/>
    <path id="パス_224" data-name="パス 224" d="M30.25,18.811V14.029c-.006-4.4-3.966-8.154-9.375-8.887V3.5A1.72,1.72,0,0,0,19,2a1.72,1.72,0,0,0-1.875,1.5V5.143c-5.409.733-9.369,4.488-9.375,8.887v4.782c-2.242.636-3.743,2.333-3.75,4.24v3.007a1.72,1.72,0,0,0,1.875,1.5h5.888C12.65,30.182,15.615,32,19,32s6.35-1.818,7.237-4.437h5.887A1.72,1.72,0,0,0,34,26.059V23.052c-.007-1.907-1.508-3.6-3.75-4.24ZM11.5,14.029c0-3.322,3.358-6.015,7.5-6.015s7.5,2.693,7.5,6.015v4.511h-15ZM19,29.066a3.991,3.991,0,0,1-3.225-1.5h6.45A3.991,3.991,0,0,1,19,29.066Zm11.25-4.511H7.75v-1.5a1.72,1.72,0,0,1,1.875-1.5h18.75a1.72,1.72,0,0,1,1.875,1.5Z" transform="translate(31 233)"/>
  </g>
</svg>
