<svg xmlns="http://www.w3.org/2000/svg" width="40" height="40" viewBox="0 0 40 40">
  <g id="ico_menu_likes" transform="translate(-30 -410)">
    <rect id="長方形_35" data-name="長方形 35" width="40" height="40" transform="translate(30 410)" fill="none"/>
    <path id="パス_226" data-name="パス 226" d="M30.952,14.12A4.5,4.5,0,0,0,27.5,12.5H20.662l.84-2.145A6.2,6.2,0,0,0,15.666,2a1.5,1.5,0,0,0-1.365.885L10.026,12.5H6.5A4.5,4.5,0,0,0,2,17V27.5A4.5,4.5,0,0,0,6.5,32H25.6a4.5,4.5,0,0,0,4.425-3.69l1.905-10.5A4.5,4.5,0,0,0,30.952,14.12ZM9.5,29h-3A1.5,1.5,0,0,1,5,27.5V17a1.5,1.5,0,0,1,1.5-1.5h3ZM29,17.27,27.1,27.77A1.5,1.5,0,0,1,25.6,29H12.5V14.315l4.08-9.18a3.165,3.165,0,0,1,2.07,4.17l-.8,2.145a3,3,0,0,0,2.805,4.05H27.5A1.531,1.531,0,0,1,29,17.27Z" transform="translate(33 413)"/>
  </g>
</svg>
