<svg xmlns="http://www.w3.org/2000/svg" width="30" height="30" viewBox="0 0 30 30">
  <g id="ico_sns_twitter" transform="translate(-1844 -850)">
    <rect id="長方形_15" data-name="長方形 15" width="30" height="30" transform="translate(1844 850)" fill="none"/>
    <g id="グループ_6" data-name="グループ 6" transform="translate(1847 853)">
      <rect id="長方形_6" data-name="長方形 6" width="24" height="24" fill="none"/>
      <path id="パス_198" data-name="パス 198" d="M9.464,6.444a4.768,4.768,0,0,1,7.931-3.562,8.487,8.487,0,0,0,1.95-1.027.9.9,0,0,1,1.394.949,7.563,7.563,0,0,1-1.721,3.263c.012.136.019.273.019.41a12.385,12.385,0,0,1-4.157,9.714,12.657,12.657,0,0,1-14.453,1A.9.9,0,0,1,.9,15.51,9.154,9.154,0,0,0,5.046,14.7,10.724,10.724,0,0,1,.4,3.891,3.063,3.063,0,0,1,.954,2.706a1.438,1.438,0,0,1,.87-.527,1.5,1.5,0,0,1,1.5.758A8.316,8.316,0,0,0,9.464,6.444Zm8.425-1.827c-.158.057-.317.109-.478.157a.9.9,0,0,1-.938-.271,2.969,2.969,0,0,0-5.209,1.948v.915a.9.9,0,0,1-.877.9A10.115,10.115,0,0,1,2.171,4.4a4.8,4.8,0,0,0-.165.965,8.927,8.927,0,0,0,5.268,8.5.9.9,0,0,1,.14,1.567A10.925,10.925,0,0,1,4.424,16.85a10.415,10.415,0,0,0,9.287-2.027A10.631,10.631,0,0,0,17.237,6.48a2.94,2.94,0,0,0-.054-.55.9.9,0,0,1,.252-.81A5.671,5.671,0,0,0,17.889,4.617Z" transform="translate(1.636 2.418)" fill="#fff" fill-rule="evenodd"/>
    </g>
  </g>
</svg>
