<svg xmlns="http://www.w3.org/2000/svg" width="30" height="30" viewBox="0 0 30 30">
  <g id="ico_sns_github" transform="translate(-1907 -850)">
    <rect id="長方形_16" data-name="長方形 16" width="30" height="30" transform="translate(1907 850)" fill="none"/>
    <g id="グループ_7" data-name="グループ 7" transform="translate(1910 853)">
      <rect id="長方形_7" data-name="長方形 7" width="24" height="24" fill="none"/>
      <path id="パス_199" data-name="パス 199" d="M14.206,1.325a15.019,15.019,0,0,1,2.7-1.746,1.382,1.382,0,0,1,.946.031,1.648,1.648,0,0,1,.869.973,5.748,5.748,0,0,1,.253,3.64A6.051,6.051,0,0,1,20.223,7.9a7.755,7.755,0,0,1-1.415,4.934A6.444,6.444,0,0,1,15,15.065a4.105,4.105,0,0,1,.278,1.783v3.564a.9.9,0,1,1-1.8,0V16.821c0-.023,0-.045,0-.069a2.286,2.286,0,0,0-.6-1.737.9.9,0,0,1,.554-1.51,5.521,5.521,0,0,0,3.956-1.772A6.062,6.062,0,0,0,18.424,7.9a4.239,4.239,0,0,0-1.11-2.869.9.9,0,0,1-.185-.917,3.938,3.938,0,0,0,.007-2.657c-.079.045-.164.1-.24.149-.481.328-1.123.82-2,1.43a.9.9,0,0,1-.755.126,10.768,10.768,0,0,0-5.806,0,.9.9,0,0,1-.755-.126A7.364,7.364,0,0,0,5.212,1.872a3.945,3.945,0,0,0,.129,2.247.9.9,0,0,1-.185.917,4.24,4.24,0,0,0-1.11,2.9,6,6,0,0,0,1.034,3.8,5.658,5.658,0,0,0,3.969,1.8.9.9,0,0,1,.543,1.508,2.287,2.287,0,0,0-.6,1.717c0,.02,0,.041,0,.061v3.591a.9.9,0,1,1-1.8,0V18.764a4.578,4.578,0,0,1-2.428-.2,4.7,4.7,0,0,1-1.973-1.583c-.258-.326-.486-.656-.737-.925a1.038,1.038,0,0,0-.479-.343.9.9,0,1,1,.449-1.742,3.452,3.452,0,0,1,1.789,1.389,3.725,3.725,0,0,0,1.7,1.562,3.187,3.187,0,0,0,1.675.01v-.091a4.113,4.113,0,0,1,.284-1.764,6.552,6.552,0,0,1-3.812-2.239,7.689,7.689,0,0,1-1.416-4.9A6.054,6.054,0,0,1,3.49,4.222,5.748,5.748,0,0,1,3.743.583.9.9,0,0,1,4.311.067S5.542-.44,8.253,1.328A12.562,12.562,0,0,1,14.206,1.325Z" transform="translate(1.202 1.588)" fill="#fff" fill-rule="evenodd"/>
    </g>
  </g>
</svg>
