<svg xmlns="http://www.w3.org/2000/svg" width="30" height="30" viewBox="0 0 30 30">
  <g id="ico_sns_tumbler" transform="translate(-1970 -850)">
    <rect id="長方形_17" data-name="長方形 17" width="30" height="30" transform="translate(1970 850)" fill="none"/>
    <path id="パス_200" data-name="パス 200" d="M18.517,22.554V19.708a4.836,4.836,0,0,1-2.689.923,3.2,3.2,0,0,1-1.383-.382,1.156,1.156,0,0,1-.541-.693,5.377,5.377,0,0,1-.245-2V13.021h4.132V10.266H13.659V5.644H11.218a11.432,11.432,0,0,1-.617,2.3A4.244,4.244,0,0,1,9.374,9.485a5.509,5.509,0,0,1-1.77,1v2.537H9.527v6.227a4.923,4.923,0,0,0,.307,1.842,3.192,3.192,0,0,0,.924,1.23,4.305,4.305,0,0,0,1.536.923,8.927,8.927,0,0,0,2.151.307,8.26,8.26,0,0,0,2-.23,7.92,7.92,0,0,0,2.074-.766" transform="translate(1972.396 850.356)" fill="#fff"/>
  </g>
</svg>
